<?xml version="1.0" standalone="no"?>
<svg viewBox="0 0 200 200" xmlns="http://www.w3.org/2000/svg">
  <clipPath>
    <path fill="#FF0066" d="M45,-73.1C57.5,-70.7,66.2,-57,66.4,-42.9C66.5,-28.9,58.1,-14.4,53.6,-2.6C49.1,9.3,48.6,18.5,47.6,31.2C46.7,43.8,45.3,59.9,37.2,69.2C29.2,78.5,14.6,81,1.5,78.4C-11.5,75.7,-23.1,67.8,-36.4,61.6C-49.7,55.4,-64.9,50.8,-70.9,40.8C-77,30.8,-74,15.4,-66.5,4.4C-58.9,-6.7,-46.8,-13.4,-39,-20.3C-31.1,-27.2,-27.6,-34.4,-21.8,-40.6C-16,-46.8,-8,-52,4.1,-59.2C16.3,-66.3,32.5,-75.4,45,-73.1Z" transform="translate(100 100)" />
  </clipPath>
</svg>
