<svg xmlns="http://www.w3.org/2000/svg" xmlns:xlink="http://www.w3.org/1999/xlink" width="500" zoomAndPan="magnify" viewBox="0 0 375 374.999991" height="500" preserveAspectRatio="xMidYMid meet" version="1.0"><defs><g/><clipPath id="6365bc44a1"><path d="M 11.722656 11.722656 L 363.277344 11.722656 L 363.277344 363.277344 L 11.722656 363.277344 Z M 11.722656 11.722656 " clip-rule="nonzero"/></clipPath><clipPath id="4f2ccbd33d"><path d="M 187.5 11.722656 C 90.421875 11.722656 11.722656 90.421875 11.722656 187.5 C 11.722656 284.578125 90.421875 363.277344 187.5 363.277344 C 284.578125 363.277344 363.277344 284.578125 363.277344 187.5 C 363.277344 90.421875 284.578125 11.722656 187.5 11.722656 Z M 187.5 11.722656 " clip-rule="nonzero"/></clipPath></defs><g clip-path="url(#6365bc44a1)"><g clip-path="url(#4f2ccbd33d)"><path fill="#ef3a5d" d="M 11.722656 11.722656 L 363.277344 11.722656 L 363.277344 363.277344 L 11.722656 363.277344 Z M 11.722656 11.722656 " fill-opacity="1" fill-rule="nonzero"/></g></g><g fill="#ffffff" fill-opacity="1"><g transform="translate(88.247553, 288.448154)"><g><path d="M 9.390625 0 C 7.066406 0 4.921875 -1.207031 2.953125 -3.625 C 0.984375 -6.039062 0 -8.410156 0 -10.734375 L 0.53125 -182.03125 C 0.53125 -185.613281 1.515625 -188.296875 3.484375 -190.078125 C 5.453125 -191.867188 7.601562 -192.765625 9.9375 -192.765625 L 58 -192.5 C 62.289062 -192.5 65.332031 -190.351562 67.125 -186.0625 L 99.609375 -107.65625 L 131.828125 -186.0625 C 133.617188 -190.351562 136.660156 -192.5 140.953125 -192.5 L 189.015625 -192.765625 C 191.515625 -192.765625 193.703125 -191.867188 195.578125 -190.078125 C 197.460938 -188.296875 198.40625 -185.613281 198.40625 -182.03125 L 198.953125 -10.734375 C 198.953125 -8.410156 198.007812 -6.039062 196.125 -3.625 C 194.25 -1.207031 192.054688 0 189.546875 0 L 143.90625 0 C 141.582031 0 139.390625 -0.9375 137.328125 -2.8125 C 135.265625 -4.695312 134.234375 -7.335938 134.234375 -10.734375 L 133.171875 -71.953125 L 115.71875 -35.4375 C 115 -34.007812 113.921875 -32.398438 112.484375 -30.609375 C 111.054688 -28.816406 109.179688 -27.921875 106.859375 -27.921875 L 92.09375 -27.921875 C 89.757812 -27.921875 87.875 -28.816406 86.4375 -30.609375 C 85.007812 -32.398438 83.941406 -34.007812 83.234375 -35.4375 L 65.78125 -71.953125 L 64.703125 -10.734375 C 64.703125 -7.335938 63.71875 -4.695312 61.75 -2.8125 C 59.78125 -0.9375 57.546875 0 55.046875 0 Z M 9.390625 0 "/></g></g></g></svg>